<?xml version="1.0"?>
<svg xmlns="http://www.w3.org/2000/svg" viewBox="0 0 24 24">
    <path d="M 10 2 C 7.791 2 6 3.791 6 6 C 6 8.209 7.791 10 10 10 C 13 10 18 6 18 6 C 18 6 13 2 10 2 z M 19.78125 11 C 19.62125 11 19.46675 11.0655 19.34375 11.1875 L 18.28125 12.25 L 20.75 14.71875 L 21.8125 13.65625 C 22.0565 13.41225 22.0565 13.02525 21.8125 12.78125 L 20.21875 11.1875 C 20.09875 11.0655 19.94125 11 19.78125 11 z M 10 12 C 3.923 12 2 16 2 16 L 2 18 L 10 18 L 14.90625 13.09375 C 13.70625 12.46875 12.1 12 10 12 z M 17.5 13 L 11 19.5 L 11 22 L 13.5 22 L 20 15.5 L 17.5 13 z"/>
</svg>
